<svg width="30" height="30" viewBox="0 0 30 30" fill="none" xmlns="http://www.w3.org/2000/svg">
<path d="M28.125 16.875V15H22.5V24.375H24.375V20.625H27.1875V18.75H24.375V16.875H28.125Z" fill="black"/>
<path d="M17.8125 24.375H14.0625V15H17.8125C18.5582 15.0007 19.2731 15.2973 19.8004 15.8246C20.3277 16.3519 20.6243 17.0668 20.625 17.8125V21.5625C20.6243 22.3082 20.3277 23.0231 19.8004 23.5504C19.2731 24.0777 18.5582 24.3743 17.8125 24.375ZM15.9375 22.5H17.8125C18.0611 22.4998 18.2994 22.4009 18.4751 22.2251C18.6509 22.0494 18.7498 21.8111 18.75 21.5625V17.8125C18.7498 17.5639 18.6509 17.3256 18.4751 17.1499C18.2994 16.9741 18.0611 16.8752 17.8125 16.875H15.9375V22.5Z" fill="black"/>
<path d="M10.3125 15H5.625V24.375H7.5V21.5625H10.3125C10.8096 21.5618 11.286 21.364 11.6375 21.0125C11.989 20.661 12.1868 20.1846 12.1875 19.6875V16.875C12.187 16.3779 11.9893 15.9012 11.6378 15.5497C11.2863 15.1982 10.8096 15.0005 10.3125 15ZM7.5 19.6875V16.875H10.3125L10.3134 19.6875H7.5Z" fill="black"/>
<path d="M20.625 13.125V9.37501C20.6283 9.2518 20.6049 9.12934 20.5563 9.01605C20.5078 8.90276 20.4353 8.80134 20.3438 8.71876L13.7812 2.15626C13.6987 2.06471 13.5973 1.99215 13.484 1.9436C13.3707 1.89504 13.2482 1.87164 13.125 1.87501H3.75C3.25318 1.8765 2.77712 2.07452 2.42581 2.42583C2.0745 2.77714 1.87648 3.25319 1.875 3.75001V26.25C1.875 26.7473 2.07254 27.2242 2.42417 27.5758C2.77581 27.9275 3.25272 28.125 3.75 28.125H18.75V26.25H3.75V3.75001H11.25V9.37501C11.2515 9.87184 11.4495 10.3479 11.8008 10.6992C12.1521 11.0505 12.6282 11.2485 13.125 11.25H18.75V13.125H20.625ZM13.125 9.37501V4.12501L18.375 9.37501H13.125Z" fill="black"/>
</svg>
